<?xml version="1.0" encoding="UTF-8" standalone="no"?>
<svg
   viewBox="0 0 242.1 124"
   height="50"
   version="1.1"
   id="svg1"
   sodipodi:docname="signature.svg"
   inkscape:version="1.4.2 (f4327f4, 2025-05-13)"
   xmlns:inkscape="http://www.inkscape.org/namespaces/inkscape"
   xmlns:sodipodi="http://sodipodi.sourceforge.net/DTD/sodipodi-0.dtd"
   xmlns="http://www.w3.org/2000/svg"
   xmlns:svg="http://www.w3.org/2000/svg">
  <defs
     id="defs1" />
  <sodipodi:namedview
     id="namedview1"
     pagecolor="#ffffff"
     bordercolor="#000000"
     borderopacity="0.25"
     inkscape:showpageshadow="2"
     inkscape:pageopacity="0.0"
     inkscape:pagecheckerboard="0"
     inkscape:deskcolor="#d1d1d1"
     inkscape:zoom="9.9463029"
     inkscape:cx="121.05"
     inkscape:cy="24.984158"
     inkscape:window-width="2560"
     inkscape:window-height="1334"
     inkscape:window-x="-11"
     inkscape:window-y="-11"
     inkscape:window-maximized="1"
     inkscape:current-layer="g1" />
  <g
     id="g1">
    <path
       style="font-size:72.2804px;line-height:0;font-family:'851tegakizatsu';-inkscape-font-specification:'851tegakizatsu';stroke-width:2.31025"
       d="m 6.076016,56.176913 q -0.6065346,0 -1.1524157,-0.358056 Q 4.3777192,55.460801 4.0137984,54.983392 3.5285708,54.386632 3.4072634,53.67052 3.2859574,52.954407 3.2859574,52.118942 L 3.4072634,51.99959 V 50.806069 Q 3.7711846,49.373844 4.0744519,47.881944 4.3777192,46.390042 4.8022933,44.957817 5.2268676,43.465916 5.5301349,41.914339 5.8334022,40.362762 6.197323,38.930537 V 35.588679 Q 5.9547091,34.991919 5.5301349,34.395158 5.1055607,33.798397 5.2268676,32.962933 5.3481745,32.604877 5.7120953,32.246821 6.076016,31.888765 6.4399368,31.769412 h 1.0917623 q 0.6065345,0.238704 1.0917622,0.835465 0.4852277,0.59676 0.7278415,1.19352 l 0.3639208,1.432225 v 3.699915 q -0.3639208,1.551577 -0.6671881,3.043479 -0.3032673,1.4919 -0.6065346,3.043478 -0.3032673,1.4919 -0.788495,2.983801 -0.4852276,1.491901 -0.7278415,3.043478 v 1.193522 h 0.3639208 q 0.8491484,-0.477409 1.6376434,-1.074169 0.788495,-0.596761 1.5769904,-1.193521 0.788495,-0.596761 1.516336,-1.253197 0.788495,-0.656436 1.880257,-0.537085 0.363921,0.119353 0.727842,0.477409 0.363921,0.358056 0.485228,0.716112 v 0.954817 q -0.606535,0.954816 -1.516337,1.611253 -0.909802,0.656437 -1.819604,1.372549 -0.849148,0.716113 -1.75895,1.312873 -0.909802,0.59676 -1.8802574,1.193521 z m 40.51651,0.477408 -0.121307,-0.119351 H 45.25815 L 43.4992,56.176913 h -1.576991 l -0.121306,-0.119352 h -8.612791 l -0.121307,0.119352 h -2.304832 l -0.121306,0.119352 h -1.698298 l -0.121306,-0.119352 h -1.698297 q -0.363921,-0.119352 -0.727841,-0.477408 -0.363921,-0.358057 -0.485228,-0.716113 l -0.242614,-1.432225 v -1.193521 l 0.121306,-0.119351 v -1.312874 l 0.121308,-0.119352 v -1.312873 q 0.242613,-1.19352 0.485228,-2.327365 0.242613,-1.193521 0.545881,-2.26769 0.303267,-1.074168 0.727841,-2.148337 0.424574,-1.074169 0.667188,-2.148338 h -0.363921 q -0.606534,0.59676 -1.213069,1.074169 -0.606535,0.477409 -1.213069,0.895141 -0.606534,0.417732 -1.455683,0.29838 -0.363921,-0.119352 -0.727841,-0.477408 -0.363921,-0.358057 -0.485228,-0.716113 v -0.954816 q 0.485228,-0.835465 1.334376,-1.491901 0.849148,-0.656437 1.637644,-1.372549 0.788494,-0.716113 1.576989,-1.37255 0.788495,-0.656436 1.516336,-1.4919 h 0.242615 V 34.51451 Q 28.214528,34.275806 27.183419,34.037102 26.15231,33.798397 25.181855,33.559694 24.2114,33.32099 23.240945,32.903257 22.270489,32.485525 21.542648,31.769412 21.300034,31.411356 21.23938,31.0533 q -0.06066,-0.358056 -0.06066,-0.835464 0.121307,-0.358057 0.485228,-0.716113 0.363921,-0.358056 0.727841,-0.477408 h 1.091762 q 0.970455,0.59676 2.122871,0.954816 1.152416,0.358056 2.304831,0.656437 1.152416,0.298379 2.304831,0.59676 1.152417,0.29838 2.365485,0.417732 l 5.458812,-5.370843 v -0.358056 l -0.363917,-0.119353 -0.121307,0.119353 h -1.57699 l -1.940911,0.358056 h -1.576989 l -0.121307,0.119351 h -1.57699 l -0.121307,-0.119351 h -1.334377 q -0.727838,-0.238705 -1.516332,-0.358056 -0.788495,-0.119353 -1.455683,-0.477409 -0.667188,-0.358056 -1.273723,-0.954816 l -0.485227,-1.074169 v -1.432225 q 0.606534,-1.074169 1.455683,-1.96931 0.849148,-0.89514 1.819604,-1.611253 0.970455,-0.716112 1.94091,-1.372549 0.970455,-0.716112 1.940911,-1.312873 h 1.213069 q 0.36392,0.119353 0.727841,0.477409 0.18196,0.179028 0.363921,0.417732 0.303267,-0.537084 0.485228,-1.253197 0.242613,-0.835465 0.424574,-1.730605 0.18196,-0.895141 0.303267,-1.730605 L 35.007716,11.658587 H 23.604865 l -0.121306,0.119352 h -3.032673 l -0.121307,0.119352 h -1.334376 l -0.363921,0.716113 0.485228,1.19352 q 0.242613,0.596761 0.424574,1.312873 0.18196,0.656436 0.06065,1.372549 -0.121307,0.358056 -0.485228,0.716112 -0.363921,0.358056 -0.727841,0.477409 H 17.418213 L 16.205144,16.611698 14.992075,12.494051 14.870768,12.374699 H 13.536392 L 8.0169267,13.210164 H 6.6825506 L 5.3481745,13.448868 H 3.7711846 L 2.4368084,12.732755 q -0.242614,-0.358056 -0.303267,-0.716112 -0.06066,-0.358056 -0.06066,-0.835464 0.121306,-0.358057 0.485227,-0.716113 0.363921,-0.358056 0.727842,-0.4774089 H 5.3481681 L 6.6825442,9.7489536 H 8.0169203 L 14.628154,8.6747848 q 0.242614,-0.7161125 0.303267,-1.5515771 0.06065,-0.8354645 0.242614,-1.6112531 0.18196,-0.7757885 0.363921,-1.551577 0.18196,-0.7757885 0.909802,-1.3725489 0.36392,-0.2387042 0.727841,-0.2983803 0.363921,-0.059676 0.849149,-0.059676 0.36392,0.1193521 0.727841,0.4774083 0.363921,0.3580562 0.485228,0.7161125 v 1.074169 q -0.363921,0.5967602 -0.485228,1.1935206 -0.121307,0.5967604 -0.242614,1.2531969 -0.121307,0.6564364 -0.242614,1.2531968 l 0.606535,0.3580562 0.121307,-0.1193521 h 1.334376 l 0.121307,-0.119352 h 3.032673 l 0.121306,-0.1193521 h 11.888078 q 0.363921,-0.8354646 0.606535,-1.7902812 0.242614,-0.9548167 0.363921,-1.9693094 0.121306,-1.0144927 0.727841,-1.7306052 0.36392,-0.2387041 0.727841,-0.2983801 0.363921,-0.059676 0.849149,-0.059676 0.36392,0.119352 0.727841,0.4774083 0.363921,0.3580562 0.485228,0.7161125 v 1.4322249 l -0.606535,2.86445 0.363921,0.3580562 h 2.183524 l 0.121308,0.1193521 h 2.365485 l 2.30483,0.3580563 h 1.819604 l 0.121308,0.1193524 h 1.334375 q 0.606536,0.1193515 1.21307,0.1790281 0.606534,0.059679 1.213069,0.1790281 0.606535,0.1193515 1.091763,0.5967601 0.242613,0.3580564 0.303266,0.7161124 0.06066,0.358057 0.06066,0.835465 -0.121307,0.358056 -0.485228,0.716113 -0.363921,0.358055 -0.727842,0.477407 H 51.323499 L 49.989122,12.255348 H 48.654746 L 48.533439,12.135995 H 46.713835 L 44.409004,11.777939 H 42.043519 L 41.922212,11.658587 H 39.25346 l -0.36392,0.119352 q -0.242615,0.954816 -0.424575,1.909634 -0.181961,0.954816 -0.363921,1.909632 -0.18196,0.895141 -0.485227,1.790282 -0.303268,0.89514 -1.031109,1.611253 -0.363921,0.238704 -0.727842,0.29838 -0.363921,0.05968 -0.849148,0.05968 -0.36392,-0.119351 -0.727841,-0.477407 -0.242615,-0.238705 -0.363921,-0.477409 -0.363921,0.477409 -0.909802,0.775788 -0.788495,0.417733 -1.516337,0.895141 -0.727841,0.477409 -1.455683,1.014493 -0.727842,0.537084 -1.334376,1.133844 v 0.477409 l 0.606534,0.119352 h 1.334377 l 0.121307,0.119352 h 1.57699 l 0.121307,-0.119352 h 1.576989 l 1.940911,-0.358057 h 1.57699 l 1.57699,-0.358056 h 4.852277 q 0.363921,0.119352 0.727842,0.477409 0.424574,0.358056 0.545881,0.716112 v 0.954817 q -0.909802,1.074168 -2.062218,1.849957 -1.152416,0.775789 -2.062218,1.909633 -0.909802,1.133846 -2.001564,2.088662 -1.091762,0.954816 -1.94091,2.028985 v 0.358056 q 2.426138,0.596761 4.852276,1.133845 2.426138,0.537084 4.791623,1.312873 2.426138,0.775789 4.73097,1.790282 2.304832,1.014492 4.367049,2.566069 0.242614,0.358056 0.303267,0.716113 0.06066,0.358056 0.06066,0.835464 -0.121308,0.358056 -0.485228,0.716112 -0.363921,0.358057 -0.727842,0.477409 h -1.091765 q -2.304831,-1.432226 -4.73097,-2.446718 -2.426138,-1.014493 -5.034237,-1.790282 -2.547445,-0.775789 -5.155544,-1.312873 -2.608098,-0.537084 -5.155543,-1.014492 l -3.032674,2.506394 v 0.358056 l 1.819604,0.59676 2.062217,-0.358056 h 1.334377 l 0.121307,-0.119353 h 4.730969 q 0.849149,0.238705 1.758951,0.417733 0.909802,0.179028 1.75895,0.477408 0.909802,0.29838 1.698297,0.835465 0.788495,0.537084 1.395029,1.253197 0.606535,0.835464 0.970455,1.730604 0.363921,0.895141 0.545882,1.849958 0.18196,0.954817 0.424574,1.909633 v 4.953112 l -0.606535,1.909633 q 0.363921,0.358056 0.424575,0.775789 0.06066,0.417732 0.06066,0.89514 -0.121308,0.358057 -0.485228,0.716113 -0.363921,0.358056 -0.727842,0.477408 z m -0.727841,-3.819266 v -1.193521 l 0.121307,-0.119352 V 47.046479 Q 45.743377,46.330366 45.622071,45.67393 45.500764,45.017494 45.197496,44.361057 44.89423,43.70462 44.348348,43.227212 43.741813,42.869156 43.195932,42.630451 42.650051,42.391748 41.982863,42.272395 41.315675,42.153044 40.709141,41.914339 h -4.488357 l -0.121306,0.119352 h -1.334377 l -3.275287,0.59676 q -0.242613,0.835465 -0.606534,1.67093 -0.363921,0.835464 -0.606534,1.670929 -0.242615,0.835465 -0.485228,1.790281 -0.242614,0.895141 -0.363921,1.730605 v 1.312873 l -0.121307,0.119352 v 1.67093 q 0.606535,0.358056 1.334377,0.238704 l 0.121306,-0.119353 h 2.304832 l 0.121307,-0.119351 h 8.612791 l 0.121306,0.119351 H 43.4992 l 2.122871,0.358057 z M 15.598609,27.114681 Q 14.506847,26.398568 13.475738,25.443752 12.444629,24.488936 11.292214,23.653471 10.200451,22.818006 8.987382,22.16157 7.7743129,21.505133 7.0464714,20.311613 v -0.954817 q 0.1213069,-0.358057 0.4852277,-0.716113 0.3639206,-0.358056 0.7278414,-0.477408 h 1.0917623 q 1.0917622,0.596761 2.2441782,1.372549 1.213069,0.775789 2.244178,1.67093 1.031109,0.895139 2.122871,1.79028 1.091762,0.895141 1.819604,1.969309 v 0.954818 q -0.121307,0.358056 -0.485228,0.716112 -0.363921,0.358056 -0.727841,0.477408 z m 79.45603,29.778345 Q 94.205491,56.53497 93.84157,55.699505 v -1.193521 l 1.334376,-2.625746 q -2.426138,-0.835465 -4.367049,-3.103154 -1.576989,-1.790281 -2.062217,-4.057971 -0.485228,-2.327365 -0.242614,-4.833759 0.485227,-2.86445 1.213069,-5.490196 -1.57699,-0.119352 -3.275287,-0.05968 -1.698297,0.05968 -3.032672,-0.775788 -0.485228,-0.716113 -0.363921,-1.670929 0.363921,-0.835465 1.213069,-1.193521 h 0.970455 l 6.065346,0.358056 q 0.970455,-1.670929 2.122871,-3.401534 1.152416,-1.730605 2.850713,-2.924126 h 0.970455 q 0.849149,0.358056 1.213072,1.193521 v 0.954817 q -1.940914,2.148337 -3.153983,4.535378 5.701427,0.954817 11.402857,2.208014 5.76208,1.253197 11.4635,2.208014 0.48524,0.59676 0.36393,1.551576 -0.36393,0.835465 -1.21307,1.193522 l -0.97046,0.119352 -7.15711,-1.074169 q -1.94091,2.983802 -3.88183,6.02728 -1.88025,2.983802 -3.94247,5.967604 l 4.91293,0.119352 7.39974,-0.477408 q 0.84914,0.358056 1.21306,1.193521 v 0.954816 q -0.36392,0.835465 -1.21306,1.193521 -2.91138,0.238704 -5.7621,0.477408 -2.79006,0.238705 -5.82273,0.119352 l -3.27529,-0.238704 -2.183521,3.580563 q -0.606534,0.477408 -1.57699,0.358056 z M 74.311156,55.460801 Q 73.401355,55.102745 73.037434,54.26728 l -0.121307,-0.716113 q 0.363921,-2.625746 0.485228,-5.430519 0.121307,-2.86445 0.121307,-5.7289 h -0.242614 q -1.819604,1.193521 -3.760515,2.267689 -1.940911,1.014493 -4.245742,1.014493 -0.970455,-0.179029 -1.698296,-1.014493 -0.727842,-1.193521 -0.485228,-2.625746 1.213069,-5.012787 4.427702,-9.130434 3.214634,-4.117646 5.883386,-8.533674 h -0.363921 q -2.183525,0.59676 -4.367049,1.014493 -2.183525,0.417732 -4.488356,0.775789 l -1.334376,-0.716113 q -0.485228,-0.59676 -0.363921,-1.551577 0.363921,-0.835464 1.213069,-1.193521 2.547445,-0.358056 4.973584,-0.835464 2.426139,-0.477408 4.852277,-1.074169 v -8.175617 q 0.242613,-2.028986 0.303267,-3.9982949 0.06066,-1.9693097 0.849148,-3.7595909 0.606535,-0.4774083 1.57699,-0.3580562 0.970456,0.4774083 1.334376,1.4322249 v 1.7902813 l -0.485228,4.8934358 v 7.2208 h 0.363921 q 1.819604,-0.716112 3.881822,-0.716112 0.849148,0.358056 1.213069,1.193521 v 0.954816 q -0.363921,0.835464 -1.213069,1.193521 l -4.245743,0.954817 -0.121306,0.119351 v 5.967605 l -0.121307,0.119352 v 5.490196 l 0.121307,0.358056 h 0.242614 q 0.970455,-0.954817 2.426138,-0.835465 0.849148,0.358057 1.213069,1.193521 V 36.7822 q -1.57699,1.790281 -3.760515,2.983802 v 7.220801 q -0.121306,2.028985 -0.242613,4.177323 -0.121307,2.148337 -0.970455,3.938619 -0.606535,0.477407 -1.576991,0.358056 z m 23.169622,-6.564365 q 2.183521,-2.86445 4.063782,-5.848252 1.88026,-3.043478 3.76051,-6.146632 -2.85071,-0.716112 -5.762075,-1.312873 -2.911366,-0.59676 -5.822732,-0.954817 -1.091762,2.028985 -1.516336,4.237 -0.424574,2.208013 -0.18196,4.714407 0.606534,2.566069 2.911366,4.35635 l 2.426138,1.074169 z M 69.155613,40.84017 73.401355,38.095072 v -2.86445 l -0.121307,-3.938618 h -0.242614 q -2.062218,2.387042 -3.639208,5.012787 -1.576989,2.625746 -2.547445,5.490196 h 0.485228 z M 111.00651,23.892175 q -0.84915,-0.358057 -1.21307,-1.193521 l -0.12131,-3.103154 0.84915,-4.416027 h -0.24262 q -1.57698,1.432225 -3.45725,2.208013 -1.8196,0.775789 -4.00313,0.656437 -2.18353,0.119352 -3.639208,-1.670929 -1.819601,-2.446718 -1.455681,-5.669224 0,-2.2676894 1.455681,-4.0579706 0.60654,-0.4774083 1.576998,-0.3580562 0.84915,0.3580562 1.21306,1.1935208 v 1.0741687 q -0.97045,1.7902813 -0.72783,4.0579713 l 0.72783,1.551576 q 0.84915,0.477409 2.06222,0.358056 2.12287,-0.477407 3.82117,-1.849957 1.69831,-1.372548 3.27529,-3.0434778 1.57699,-2.1483372 3.15399,-3.9386184 h 0.97045 q 0.84915,0.3580562 1.21307,1.1935208 v 1.3128729 q -1.33437,3.6999145 -2.36548,7.5788565 -1.03112,3.819267 -1.51635,7.757885 -0.60653,0.477409 -1.57698,0.358057 z M 91.172818,19.476148 q -1.334376,-0.59676 -1.94091,-1.909634 -0.727842,-2.148337 -1.21307,-4.416026 -0.485228,-2.327366 -0.849149,-4.7144074 0.363921,-0.8354645 1.21307,-1.1935208 h 0.970455 q 0.970456,0.4774084 1.334377,1.432225 0.485227,2.5063942 1.091762,4.9531112 0.606534,2.387042 1.576989,4.654731 -0.36392,0.835465 -1.213068,1.193521 z m 45.854022,36.342709 q -0.42457,-0.119352 -0.78849,-0.477409 -0.36392,-0.358056 -0.48523,-0.716112 V 53.67052 q 0.48523,-0.596761 0.72785,-1.312874 0.30326,-0.716112 0.42457,-1.432225 v -1.19352 l 0.1213,-0.119353 v -2.86445 l 0.12131,-0.119351 V 39.04989 l -0.7885,-0.238705 q -1.21306,0.358056 -2.48679,0.656437 -1.27372,0.29838 -2.6081,0.537084 -1.33437,0.238704 -2.54744,0.537084 -1.21307,0.29838 -2.54745,0.537085 h -1.21307 q -0.36391,-0.119352 -0.72783,-0.477409 -0.36393,-0.358056 -0.48523,-0.716112 v -0.954817 q 0.1213,-0.477408 0.54587,-0.775788 0.42458,-0.29838 0.90981,-0.537084 2.06221,-0.358057 4.18509,-0.775789 2.12287,-0.417732 4.18508,-0.895141 2.06223,-0.477408 4.12444,-0.895141 2.12287,-0.417732 4.3064,-0.775788 h 5.3375 q 0.48523,0.119352 0.9098,0.238704 0.42458,0.119352 0.7885,0.477409 0.24261,0.358056 0.30327,0.716112 0.0607,0.358056 0.0607,0.835465 -0.12131,0.358056 -0.48523,0.716112 -0.36392,0.358057 -0.72784,0.477408 h -6.18666 l -1.21306,0.238705 -0.12131,0.358056 v 4.654731 l 0.36392,0.358056 h 7.27841 q 0.36393,0.119352 0.72785,0.477409 0.36392,0.358056 0.48523,0.716112 v 0.954816 q -0.12131,0.358057 -0.48523,0.77579 -0.36392,0.358056 -0.72785,0.477407 l -0.60653,0.119353 h -6.79319 l -0.36392,0.358056 v 2.387041 l -0.1213,0.119353 v 1.19352 q -0.12131,0.835465 -0.30327,1.611253 -0.18196,0.775789 -0.36392,1.551578 -0.18196,0.775788 -0.90981,1.372549 l -0.60653,0.358056 z m 40.57717,-0.119352 q -0.72785,-0.358057 -1.39503,-0.895141 -0.66719,-0.537084 -1.33438,-1.074169 -0.66719,-0.537084 -1.15242,-1.193521 -0.48522,-0.656436 -0.84914,-1.372548 l -0.84915,-2.745098 v -2.56607 l 0.12131,-0.119352 v -1.432225 q 0.36392,-2.26769 0.84915,-4.535379 0.48522,-2.26769 0.84915,-4.53538 0.36391,-2.267689 0.78849,-4.535378 0.42457,-2.26769 0.66719,-4.535379 v -4.893436 q -0.12131,-0.716112 -0.42458,-1.372549 -0.30327,-0.656436 -0.72784,-1.312873 -0.42458,-0.656436 -1.03111,-1.133844 l -1.57698,-0.716113 h -4.67032 q -1.09177,0.238704 -2.12287,0.477408 -1.03111,0.238705 -2.00157,0.596761 -0.97045,0.358056 -2.00156,0.775788 -1.03111,0.417732 -1.88026,1.014493 -0.60654,2.745098 -1.27372,5.490196 -0.66719,2.745097 -1.27372,5.549872 -0.60654,2.804773 -1.09177,5.609547 -0.48523,2.804775 -0.97046,5.549872 v 1.432225 q -0.1213,0.716113 -0.2426,1.432225 -0.12132,0.716113 -0.12132,1.551577 0,0.775789 -0.60653,1.253197 -0.36392,0.238705 -0.72784,0.29838 -0.36392,0.05968 -0.84915,0.05968 -0.36392,-0.119351 -0.72784,-0.477407 -0.36392,-0.358057 -0.48523,-0.716113 l -0.1213,-1.133845 0.36391,-2.267689 v -1.432226 q 0.60654,-3.103154 1.09177,-6.265985 0.48523,-3.16283 1.21307,-6.265984 0.72784,-3.103154 1.39503,-6.265985 0.66718,-3.162829 2.00156,-6.027279 1.09176,-0.835465 2.36549,-1.37255 1.27372,-0.59676 2.54744,-1.074168 1.27373,-0.477408 2.6081,-0.716113 1.33437,-0.238704 2.66875,-0.59676 h 5.15554 q 0.97046,0.119352 1.88026,0.477409 0.9098,0.358056 1.63765,1.014492 0.72783,0.656437 1.45568,1.432225 0.48523,0.716112 0.97045,1.491901 0.48523,0.775789 0.66719,1.670929 0.18196,0.895141 0.42458,1.730606 v 5.132139 q -0.24262,2.26769 -0.66719,4.475703 -0.42458,2.208013 -0.7885,4.535379 -0.36391,2.327366 -0.84914,4.595056 -0.48524,2.267689 -0.84915,4.535379 v 1.432225 l -0.12131,0.119351 v 2.208014 q 0.24261,0.59676 0.42458,1.19352 0.18196,0.596761 0.54588,1.133845 0.36391,0.537084 0.97045,1.014493 0.48523,0.358056 0.84915,0.656437 0.36392,0.298379 0.7885,0.656436 0.42457,0.358056 0.66718,0.835465 v 0.954816 q -0.12131,0.358056 -0.48522,0.716112 -0.36392,0.358057 -0.72785,0.477409 z m -50.22106,-1.312873 -1.33438,-1.193521 -0.1213,-0.716113 v -1.193521 q 0.2426,-1.19352 0.48522,-2.327365 0.24261,-1.133845 0.72784,-2.208014 0.48523,-1.133844 1.03111,-2.148337 0.54588,-1.014492 1.39502,-1.96931 0.36393,-0.238703 0.72785,-0.298379 0.36392,-0.05968 0.84915,-0.05968 0.36392,0.119352 0.72784,0.477408 0.36392,0.358056 0.48523,0.716113 v 1.074169 q -0.60654,0.835464 -1.03111,1.790281 -0.42458,0.89514 -0.84915,1.790281 -0.42457,0.895141 -0.66719,1.849957 -0.24262,0.954816 -0.36392,2.028985 l 0.1213,1.193521 q -0.1213,0.358057 -0.48522,0.716113 -0.36392,0.358056 -0.72784,0.477408 z M 158.49816,43.70462 q -0.36391,-0.119351 -0.72783,-0.477408 -0.36392,-0.358056 -0.48523,-0.716112 v -1.312874 l 4.97358,-8.235293 q -0.48522,-0.596761 -0.97045,-1.193521 -0.48523,-0.59676 -1.03111,-1.19352 -0.54588,-0.596761 -0.97045,-1.253197 -0.42458,-0.656437 -0.30327,-1.491902 0.1213,-0.358056 0.48523,-0.716112 0.36391,-0.358056 0.72783,-0.477408 h 0.97046 q 0.60654,0.238704 1.09176,0.835464 0.48523,0.596761 0.9098,1.133846 0.42458,0.537084 0.90981,1.014492 h 0.36392 q 0.60653,-0.954817 1.21306,-1.790282 0.60654,-0.835464 1.33438,-1.730604 0.72785,-0.895141 1.33438,-1.790281 0.66719,-0.895141 1.63764,-1.491902 h 0.97045 q 0.36393,0.119352 0.72785,0.477409 0.36392,0.358056 0.48523,0.716112 v 1.074169 q -0.60653,0.954816 -1.39504,1.909633 -0.78849,0.954817 -1.51633,1.96931 -0.72784,1.014492 -1.39503,2.028985 -0.60653,1.014492 -1.09176,2.088661 0.60653,0.716112 1.09176,1.372549 0.54588,0.656437 1.15242,1.312873 0.60653,0.656437 1.27372,1.312873 0.66718,0.656436 0.42458,1.611253 -0.12132,0.358057 -0.48523,0.716113 -0.36392,0.358056 -0.72785,0.477408 h -0.97045 q -0.78849,-0.358057 -1.45568,-1.014492 -0.66719,-0.656437 -1.21307,-1.312874 -0.54589,-0.656436 -1.27372,-1.133844 -0.72785,0.954816 -1.27372,1.909633 -0.54589,0.954817 -1.21308,1.849957 -0.66718,0.895141 -1.15241,1.909633 -0.48523,1.014493 -1.45568,1.611253 z M 129.20255,33.201637 q -0.36392,-0.119352 -0.72784,-0.477408 -0.36393,-0.358057 -0.48523,-0.716113 V 31.0533 q 0.24262,-0.477408 0.54588,-0.775789 0.30327,-0.29838 0.78849,-0.537084 h 1.6983 l 6.61123,-1.074169 h 1.45568 l 0.12131,-0.119352 h 1.21307 l 1.33438,-0.238704 h 3.27528 l 1.21307,0.835465 q 0.24261,0.358056 0.30327,0.716112 0.0607,0.358057 0.0607,0.835465 -0.1213,0.358056 -0.48522,0.716112 -0.36392,0.358056 -0.72784,0.477409 h -0.97045 l -0.12132,-0.119353 h -2.54744 l -1.33437,0.238704 h -1.21308 l -0.1213,0.119353 h -1.45568 q -0.84915,0.238703 -1.6983,0.358056 -0.78849,0.119352 -1.57699,0.238704 -0.7885,0.119352 -1.63765,0.238704 -0.84914,0.119352 -1.69829,0.238704 z m -2.06222,-4.774083 -1.6983,-0.954817 -0.48523,-1.074169 v -2.86445 q 0.24262,-1.19352 0.36392,-2.446717 0.12131,-1.253197 0.42458,-2.387041 0.30327,-1.133846 0.48523,-2.387042 0.18196,-1.312873 1.0311,-2.267689 0.36393,-0.358057 0.7885,-0.358057 0.42458,0 0.9098,0 0.48523,0.119352 0.7885,0.59676 0.30327,0.477409 0.66718,0.835465 h 0.36393 l 1.9409,-0.835465 0.36393,-1.790281 v -2.267689 l -0.60653,-0.3580559 -2.54745,0.3580559 -1.33438,-0.7161123 q -0.24261,-0.3580562 -0.30327,-0.7161125 -0.0607,-0.3580566 -0.0607,-0.8354649 0.1213,-0.3580562 0.48523,-0.7161125 0.36391,-0.3580562 0.72783,-0.4774083 h 1.21307 q 1.33438,-0.2387042 2.6081,-0.5370843 1.27372,-0.2983803 2.6081,-0.4774084 1.39503,-0.1790281 2.66875,-0.4177323 1.27372,-0.2387041 2.6081,-0.4774083 h 1.45569 l 0.1213,-0.1193521 h 4.97359 l 1.45568,0.7161125 q 0.36392,0.3580563 0.36392,0.7757886 0,0.4177322 0,0.8951405 -0.1213,0.3580563 -0.48523,0.7161125 -0.36392,0.3580563 -0.72784,0.4774084 h -0.97046 l -0.1213,-0.1193521 h -3.15398 l -0.36392,0.3580562 v 3.6999143 q 0.84915,0.477408 1.88026,0.656436 1.0311,0.179028 1.88025,0.596761 0.84915,0.417732 1.57699,1.253197 0.36393,0.477408 0.72784,1.133845 0.36392,0.59676 0.54588,1.253196 0.18197,0.656437 0.30327,1.253197 v 4.774083 l -0.1213,0.119353 v 1.551577 q -0.12131,0.358056 -0.48523,0.716112 -0.36392,0.358057 -0.72785,0.477408 h -0.97045 L 147.21657,25.3244 h -3.76052 l -0.12131,0.119352 h -1.21306 q -1.94092,0.358056 -3.82117,0.775788 -1.8196,0.417733 -3.69986,0.835465 -1.88026,0.417732 -3.69987,0.775788 -1.8196,0.358057 -3.76051,0.596761 z m 5.58011,-4.535379 0.12132,-0.358057 -0.24262,-0.59676 v -4.296675 l -0.60653,-0.238704 -2.79006,0.835465 q -0.24262,0.835464 -0.36392,1.670929 -0.12131,0.835464 -0.24262,1.730605 -0.1213,0.89514 -0.1213,1.730605 l 0.60653,0.358057 z m 6.97515,-1.551577 0.12131,-0.358056 -0.24261,-0.358056 v -1.312873 l 0.1213,-0.119352 V 16.73105 l -0.60653,-0.238704 -2.85071,0.835465 -0.12131,0.119352 v 5.370843 l 0.7885,0.238705 z m 7.15711,-0.596761 0.24261,-0.238704 v -2.86445 l -0.84914,-1.670929 q -0.60654,-0.358056 -1.27373,-0.59676 -0.66718,-0.238705 -1.39502,-0.238705 l -0.36392,0.358057 v 3.699915 l -0.24262,1.670929 h 3.76052 z m -6.91449,-9.011082 0.24261,-0.238704 V 8.9134887 l -0.84915,-0.358056 -2.54744,0.7161123 -0.18196,0.1193523 v 3.1031537 l -0.1213,0.59676 1.0311,0.238705 z m 86.18857,42.847397 q -0.84915,-0.358056 -1.21306,-1.19352 l -0.12132,-0.835465 -2.42613,-0.358056 h -7.15711 q -3.15398,0.238704 -6.30796,0.59676 -3.15398,0.358056 -6.18665,0.835465 -0.84915,-0.358056 -1.21307,-1.193521 v -0.954817 l 0.97045,-1.193521 q 3.15398,-0.59676 6.30796,-0.954816 3.15398,-0.358056 6.42927,-0.59676 h 7.15711 l 2.54745,0.238704 0.1213,-5.43052 -3.15398,-0.238704 h -7.52103 q -2.79006,0.119352 -5.51946,0.29838 -2.72941,0.179028 -5.39817,0.537084 l -1.33437,-0.716112 q -0.48523,-0.59676 -0.36392,-1.551577 0.36392,-0.835465 1.21307,-1.193521 2.79006,-0.238704 5.64077,-0.477409 2.85071,-0.238703 5.76208,-0.358056 h 7.52103 l 2.79006,0.238705 v -0.596761 q -0.72785,-2.028985 -2.79006,-3.103154 -2.06222,-0.835464 -4.36705,-1.19352 h -7.64233 l -7.15711,0.954816 Q 201.8654,36.7822 201.50148,35.946735 v -0.954816 l 0.97045,-1.193522 7.39973,-1.074168 h 7.64233 q 2.54745,0.358056 4.91293,1.133845 2.36548,0.775788 4.18509,2.924126 1.6983,2.26769 1.94091,5.132139 v 6.982097 q -0.24261,1.551577 -0.18196,3.222506 0.0607,1.670929 -0.66719,3.103154 -0.60654,0.477409 -1.57699,0.358056 z m -14.92075,-24.4075 q -2.30483,-0.358056 -4.3064,-1.253197 -2.00156,-0.89514 -3.69986,-2.446718 -0.97045,-0.954816 -1.09176,-2.387041 0,-1.193521 0.97046,-1.909634 1.94091,-1.432225 4.4277,-1.79028 2.48679,-0.358057 4.91293,-0.596761 v -2.625746 h -1.57699 q -2.66875,0.358057 -5.2162,0.716113 -2.54744,0.358056 -5.09489,0.954816 l -1.33438,-0.716112 q -0.48522,-0.59676 -0.36392,-1.551578 0.36392,-0.835464 1.21307,-1.19352 3.03268,-0.596761 6.18666,-1.014493 3.15397,-0.477408 6.30795,-0.835465 V 8.9134887 h -1.09176 q -2.66875,0.2387048 -5.27685,0.596761 -2.60809,0.3580564 -5.39815,0.3580564 l -1.33438,-0.7161126 q -0.48522,-0.7161129 -0.36392,-1.6709295 0.36392,-0.8354646 1.21306,-1.1935208 h 1.09177 l 0.84915,0.1193521 q 3.88182,-0.3580563 7.70299,-0.7757885 3.82117,-0.4177323 7.8243,-0.6564365 h 8.12756 q 2.18352,-0.1193521 3.94247,0.9548166 0.48523,0.5967604 0.36393,1.5515771 -0.36393,0.8354646 -1.27373,1.1935208 h -1.09176 l -1.94091,-0.2387042 h -8.12756 l -1.6983,0.1193521 v 5.7288993 h 10.43239 q 2.54745,0.358057 5.03424,1.014493 2.54744,0.596761 4.48835,2.506394 1.09177,1.551577 0.72785,3.699914 -0.84915,1.551578 -2.24418,2.56607 -1.39503,1.014493 -2.85071,1.611253 l -1.81961,0.238705 q -0.9098,-0.358057 -1.27372,-1.193521 v -0.954817 l 1.03111,-1.193521 q 1.8196,-0.59676 3.39659,-1.790281 l 0.24261,-0.835464 q -1.45568,-0.954818 -3.21462,-1.432225 -1.6983,-0.477409 -3.51791,-0.716113 H 215.937 v 2.86445 q 2.18353,0 4.3064,0.05968 2.12287,0.05968 3.82117,1.014493 0.48522,0.596761 0.36391,1.551577 -0.36391,0.835465 -1.21306,1.193521 h -1.21308 q -1.45568,-0.358056 -2.97201,-0.358056 -1.51634,0 -3.09333,0 0,1.790281 -0.30326,3.401534 -0.30328,1.611253 -1.63765,2.804774 -1.21307,0.835465 -2.79006,0.835465 z m -19.22714,-0.238705 q -0.84915,-0.358055 -1.21308,-1.19352 l -0.1213,-1.074169 q 0.36392,-3.819266 1.63764,-7.340153 1.27372,-3.520886 3.21463,-6.92242 0.72785,-0.477409 1.6983,-0.358056 0.84915,0.358056 1.27372,1.19352 v 1.014493 q -1.75895,3.341858 -2.97202,6.92242 -1.21306,3.580563 -1.94091,7.39983 -0.60653,0.477408 -1.57698,0.358055 z m 19.83368,-3.46121 q 0.72783,-1.432225 0.60653,-3.222506 h -0.60653 q -2.79006,0.238705 -5.45881,1.074169 v 0.238704 q 2.30483,1.551577 5.09488,2.148338 z"
       id="text1"
       aria-label="落桜飘雪" />
  </g>
</svg>
